<svg width="93" height="80" viewBox="0 0 93 80" fill="none" xmlns="http://www.w3.org/2000/svg">
<path d="M38.3774 57.7072C37.9071 60.7172 37.1546 63.5861 36.1199 66.3139C35.0852 68.9477 33.8154 71.2992 32.3104 73.3686C30.8054 75.438 29.1593 77.0841 27.3721 78.3069C25.679 79.4356 23.9389 80 22.1517 80C18.7654 80 15.2851 79.4827 11.7108 78.448C8.23045 77.4133 5.50265 75.6731 3.52734 73.2275C2.96296 72.381 2.39859 71.3933 1.83422 70.2646C1.26984 69.1358 0.846561 67.7719 0.564374 66.1728C0.282187 64.5738 0.0940623 62.6455 0 60.388C0 58.1305 0.235156 55.4968 0.705467 52.4868C1.26984 48.1599 2.16343 43.9741 3.38624 39.9295C4.60905 35.8848 6.4903 31.746 9.02998 27.5132C11.6637 23.2804 15.097 18.9536 19.3298 14.5326C23.6567 10.0176 29.1593 5.17343 35.8377 0L43.1746 10.2998C34.8971 16.5079 28.9712 22.0106 25.3968 26.8078C21.9165 31.5109 19.9412 35.6496 19.4709 39.224C19.2828 40.9171 19.8001 42.234 21.0229 43.1746C22.2457 44.1152 23.8448 44.8677 25.8201 45.4321C29.9588 46.4668 33.157 48.1129 35.4145 50.3704C37.766 52.5338 38.7537 54.9794 38.3774 57.7072ZM87.7601 57.7072C87.2898 60.7172 86.5373 63.5861 85.5026 66.3139C84.468 68.9477 83.1981 71.2992 81.6931 73.3686C80.1881 75.438 78.542 77.0841 76.7549 78.3069C75.0617 79.4356 73.3216 80 71.5344 80C68.1481 80 64.6678 79.4827 61.0935 78.448C57.6132 77.4133 54.8854 75.6731 52.9101 73.2275C52.3457 72.381 51.7813 71.3933 51.2169 70.2646C50.6526 69.1358 50.2293 67.7719 49.9471 66.1728C49.6649 64.5738 49.4768 62.6455 49.3827 60.388C49.3827 58.1305 49.6179 55.4968 50.0882 52.4868C50.6526 48.1599 51.5461 43.9741 52.769 39.9295C53.9918 35.8848 55.873 31.746 58.4127 27.5132C61.0464 23.2804 64.4797 18.9536 68.7125 14.5326C73.0394 10.0176 78.542 5.17343 85.2205 0L92.5573 10.2998C84.2798 16.5079 78.3539 22.0106 74.7795 26.8078C71.2992 31.5109 69.3239 35.6496 68.8536 39.224C68.6655 40.9171 69.1828 42.234 70.4056 43.1746C71.6285 44.1152 73.2275 44.8677 75.2028 45.4321C79.3416 46.4668 82.5397 48.1129 84.7972 50.3704C87.1487 52.5338 88.1364 54.9794 87.7601 57.7072Z" fill="#F61067"/>
</svg>
