<svg width="26" height="21" viewBox="0 0 26 21" fill="none" xmlns="http://www.w3.org/2000/svg">
<path d="M21.3581 6.49991L19.4378 4.57959L20.4193 3.59811C20.9271 3.0903 20.9271 2.26725 20.4193 1.75944L19.0405 0.380651C18.7866 0.126748 18.4539 0 18.1211 0C17.7884 0 17.4557 0.126748 17.2018 0.380651L16.2203 1.36214L15.2392 0.380651C14.9853 0.126748 14.6526 0 14.3199 0C13.9872 0 13.6545 0.126748 13.4006 0.380651L9.48073 4.3005C8.97292 4.80831 8.97292 5.63136 9.48073 6.13876L10.4622 7.12024L0.380854 17.2016C-0.126951 17.7094 -0.126951 18.5325 0.380854 19.0403L1.75965 20.4191C2.01355 20.673 2.34626 20.7997 2.67898 20.7997C3.01169 20.7997 3.34441 20.673 3.59831 20.4191L13.6797 10.3377L15.6 12.258V16.8998H16.9C21.9256 16.8998 25.9998 12.8255 25.9998 7.79989V6.49991H21.3581ZM18.1199 1.29998H18.1211L19.4999 2.67878L18.5184 3.66026L17.1392 2.28066L18.1199 1.29998ZM2.67898 19.4997L1.30019 18.1209L11.3815 8.03958L12.7603 9.41837L2.67898 19.4997ZM16.9 15.5998V11.7197L10.4001 5.21983L14.3187 1.29998H14.3199L20.8198 7.79989H24.6999C24.6999 12.1008 21.2009 15.5998 16.9 15.5998Z" fill="#00F0B5"/>
</svg>
